HIERARCHY
ROOT Hips
{
  OFFSET 352.181 89.6817 215.948
  CHANNELS 6 Xposition Yposition Zposition Zrotation Xrotation Yrotation
  JOINT RightUpLeg
  {
    OFFSET -9.28908 -1.54242 -0.003762
    CHANNELS 3 Zrotation Xrotation Yrotation
    JOINT RightLeg
    {
      OFFSET 0.175992 -41.9066 0.16442
      CHANNELS 3 Zrotation Xrotation Yrotation
      JOINT RightFoot
      {
        OFFSET -0.850518 -41.676 1.19357
        CHANNELS 3 Zrotation Xrotation Yrotation
        End Site
        {
          OFFSET 0 -7.69 17.5
        }
      }
    }
  }
  JOINT LeftUpLeg
  {
    OFFSET 9.35911 -1.62184 0.0934226
    CHANNELS 3 Zrotation Xrotation Yrotation
    JOINT LeftLeg
    {
      OFFSET 0.11037 -41.8771 -4.76722e-05
      CHANNELS 3 Zrotation Xrotation Yrotation
      JOINT LeftFoot
      {
        OFFSET 0.784832 -42.2153 -2.4698
        CHANNELS 3 Zrotation Xrotation Yrotation
        End Site
        {
          OFFSET 0 -7.69 17.5
        }
      }
    }
  }
  JOINT Spine
  {
    OFFSET -0.0264112 14.3118 0.141242
    CHANNELS 3 Zrotation Xrotation Yrotation
    JOINT Spine1
    {
      OFFSET -0.0608006 9.71827 0.0702426
      CHANNELS 3 Zrotation Xrotation Yrotation
      JOINT Spine2
      {
        OFFSET 0.040197 10.1251 -0.0199022
        CHANNELS 3 Zrotation Xrotation Yrotation
        JOINT Spine3
        {
          OFFSET -0.018884 9.71791 0.0127475
          CHANNELS 3 Zrotation Xrotation Yrotation
          JOINT Neck
          {
            OFFSET -0.169577 10.3664 -0.0885607
            CHANNELS 3 Zrotation Xrotation Yrotation
            JOINT Head
            {
              OFFSET -0.26372 9.48406 0.127016
              CHANNELS 3 Zrotation Xrotation Yrotation
              End Site
              {
                OFFSET 0 15.95 0
              }
            }
          }
          JOINT RightShoulder
          {
            OFFSET -3.21308 6.8767 -0.0450237
            CHANNELS 3 Zrotation Xrotation Yrotation
            JOINT RightArm
            {
              OFFSET -12.7762 -0.0188046 -0.0629949
              CHANNELS 3 Zrotation Xrotation Yrotation
              JOINT RightForeArm
              {
                OFFSET -26.5383 -0.000218244 -0.103623
                CHANNELS 3 Zrotation Xrotation Yrotation
                JOINT RightHand
                {
                  OFFSET -25.8669 -0.047899 -0.0603739
                  CHANNELS 3 Zrotation Xrotation Yrotation
                  JOINT RightHandThumb1
                  {
                    OFFSET -2.48905 0.190105 3.12053
                    CHANNELS 3 Zrotation Xrotation Yrotation
                    JOINT RightHandThumb2
                    {
                      OFFSET -3.68274 0 0
                      CHANNELS 3 Zrotation Xrotation Yrotation
                      JOINT RightHandThumb3
                      {
                        OFFSET -2.55832 0 0
                        CHANNELS 3 Zrotation Xrotation Yrotation
                        End Site
                        {
                          OFFSET -2.194 0 0
                        }
                      }
                    }
                  }
                  JOINT RightInHandIndex
                  {
                    OFFSET -3.22368 0.508421 1.97842
                    CHANNELS 3 Zrotation Xrotation Yrotation
                    JOINT RightHandIndex1
                    {
                      OFFSET -5.21684 -0.091368 0.999158
                      CHANNELS 3 Zrotation Xrotation Yrotation
                      JOINT RightHandIndex2
                      {
                        OFFSET -3.61937 0 0
                        CHANNELS 3 Zrotation Xrotation Yrotation
                        JOINT RightHandIndex3
                        {
                          OFFSET -2.0521 0 0
                          CHANNELS 3 Zrotation Xrotation Yrotation
                          End Site
                          {
                            OFFSET -1.805 0 0
                          }
                        }
                      }
                    }
                  }
                  JOINT RightInHandMiddle
                  {
                    OFFSET -3.38211 0.517263 0.756737
                    CHANNELS 3 Zrotation Xrotation Yrotation
                    JOINT RightHandMiddle1
                    {
                      OFFSET -5.17411 -0.084 0.313895
                      CHANNELS 3 Zrotation Xrotation Yrotation
                      JOINT RightHandMiddle2
                      {
                        OFFSET -3.94947 0 0
                        CHANNELS 3 Zrotation Xrotation Yrotation
                        JOINT RightHandMiddle3
                        {
                          OFFSET -2.47579 0 0
                          CHANNELS 3 Zrotation Xrotation Yrotation
                          End Site
                          {
                            OFFSET -1.975 0 0
                          }
                        }
                      }
                    }
                  }
                  JOINT RightInHandRing
                  {
                    OFFSET -3.36516 0.537895 -0.128947
                    CHANNELS 3 Zrotation Xrotation Yrotation
                    JOINT RightHandRing1
                    {
                      OFFSET -4.63474 -0.022105 -0.478947
                      CHANNELS 3 Zrotation Xrotation Yrotation
                      JOINT RightHandRing2
                      {
                        OFFSET -3.44238 0 0
                        CHANNELS 3 Zrotation Xrotation Yrotation
                        JOINT RightHandRing3
                        {
                          OFFSET -2.3881 0 0
                          CHANNELS 3 Zrotation Xrotation Yrotation
                          End Site
                          {
                            OFFSET -1.857 0 0
                          }
                        }
                      }
                    }
                  }
                  JOINT RightInHandPinky
                  {
                    OFFSET -3.16105 0.469368 -1.20179
                    CHANNELS 3 Zrotation Xrotation Yrotation
                    JOINT RightHandPinky1
                    {
                      OFFSET -4.14105 -0.022105 -1.09053
                      CHANNELS 3 Zrotation Xrotation Yrotation
                      JOINT RightHandPinky2
                      {
                        OFFSET -2.75653 0 0
                        CHANNELS 3 Zrotation Xrotation Yrotation
                        JOINT RightHandPinky3
                        {
                          OFFSET -1.74189 0 0
                          CHANNELS 3 Zrotation Xrotation Yrotation
                          End Site
                          {
                            OFFSET -1.645 0 0
                          }
                        }
                      }
                    }
                  }
                }
              }
            }
          }
          JOINT LeftShoulder
          {
            OFFSET 3.21013 6.92813 0.031381
            CHANNELS 3 Zrotation Xrotation Yrotation
            JOINT LeftArm
            {
              OFFSET 12.8361 0.00272676 -0.00293476
              CHANNELS 3 Zrotation Xrotation Yrotation
              JOINT LeftForeArm
              {
                OFFSET 26.5005 -0.02636 0.00399578
                CHANNELS 3 Zrotation Xrotation Yrotation
                JOINT LeftHand
                {
                  OFFSET 25.9821 -0.0367196 0.00246136
                  CHANNELS 3 Zrotation Xrotation Yrotation
                  JOINT LeftHandThumb1
                  {
                    OFFSET 2.48905 0.190105 3.12053
                    CHANNELS 3 Zrotation Xrotation Yrotation
                    JOINT LeftHandThumb2
                    {
                      OFFSET 3.68274 0 0
                      CHANNELS 3 Zrotation Xrotation Yrotation
                      JOINT LeftHandThumb3
                      {
                        OFFSET 2.55832 0 0
                        CHANNELS 3 Zrotation Xrotation Yrotation
                        End Site
                        {
                          OFFSET 2.194 0 0
                        }
                      }
                    }
                  }
                  JOINT LeftInHandIndex
                  {
                    OFFSET 3.22368 0.508421 1.97842
                    CHANNELS 3 Zrotation Xrotation Yrotation
                    JOINT LeftHandIndex1
                    {
                      OFFSET 5.21684 -0.091368 0.999158
                      CHANNELS 3 Zrotation Xrotation Yrotation
                      JOINT LeftHandIndex2
                      {
                        OFFSET 3.61937 0 0
                        CHANNELS 3 Zrotation Xrotation Yrotation
                        JOINT LeftHandIndex3
                        {
                          OFFSET 2.0521 0 0
                          CHANNELS 3 Zrotation Xrotation Yrotation
                          End Site
                          {
                            OFFSET 1.805 0 0
                          }
                        }
                      }
                    }
                  }
                  JOINT LeftInHandMiddle
                  {
                    OFFSET 3.38211 0.517263 0.756737
                    CHANNELS 3 Zrotation Xrotation Yrotation
                    JOINT LeftHandMiddle1
                    {
                      OFFSET 5.17411 -0.084 0.313895
                      CHANNELS 3 Zrotation Xrotation Yrotation
                      JOINT LeftHandMiddle2
                      {
                        OFFSET 3.94947 0 0
                        CHANNELS 3 Zrotation Xrotation Yrotation
                        JOINT LeftHandMiddle3
                        {
                          OFFSET 2.47579 0 0
                          CHANNELS 3 Zrotation Xrotation Yrotation
                          End Site
                          {
                            OFFSET 1.975 0 0
                          }
                        }
                      }
                    }
                  }
                  JOINT LeftInHandRing
                  {
                    OFFSET 3.36516 0.537895 -0.128947
                    CHANNELS 3 Zrotation Xrotation Yrotation
                    JOINT LeftHandRing1
                    {
                      OFFSET 4.63474 -0.022105 -0.478947
                      CHANNELS 3 Zrotation Xrotation Yrotation
                      JOINT LeftHandRing2
                      {
                        OFFSET 3.44238 0 0
                        CHANNELS 3 Zrotation Xrotation Yrotation
                        JOINT LeftHandRing3
                        {
                          OFFSET 2.3881 0 0
                          CHANNELS 3 Zrotation Xrotation Yrotation
                          End Site
                          {
                            OFFSET 1.857 0 0
                          }
                        }
                      }
                    }
                  }
                  JOINT LeftInHandPinky
                  {
                    OFFSET 3.16105 0.469368 -1.20179
                    CHANNELS 3 Zrotation Xrotation Yrotation
                    JOINT LeftHandPinky1
                    {
                      OFFSET 4.14105 -0.022105 -1.09053
                      CHANNELS 3 Zrotation Xrotation Yrotation
                      JOINT LeftHandPinky2
                      {
                        OFFSET 2.75653 0 0
                        CHANNELS 3 Zrotation Xrotation Yrotation
                        JOINT LeftHandPinky3
                        {
                          OFFSET 1.74189 0 0
                          CHANNELS 3 Zrotation Xrotation Yrotation
                          End Site
                          {
                            OFFSET 1.645 0 0
                          }
                        }
                      }
                    }
                  }
                }
              }
            }
          }
        }
      }
    }
  }
}
MOTION
Frames:	4
Frame Time:	0.00833333
359.917 88.2383 203.676 25.5908 14.1224 -65.5537 -23.2905 -56.9323 -22.4635 -0.601355 27.2079 -18.0601 10.5392 5.96845 27.9771 11.6696 -48.9997 -6.36761 2.10067 31.6314 7.1866 -13.5254 -10.247 -17.3508 -7.67406 12.9098 14.4861 -1.61242 3.4099 3.41728 -2.69512 5.50473 5.56886 -0.124764 -0.41856 -0.609775 -0.124669 -0.421631 -0.60898 -2.98586 -7.95694 -10.748 2.34278 -11.3275 21.3176 74.3767 -3.19111 51.3333 31.2324 -58.107 19.6657 25.1772 -17.4427 -17.9256 28.184 10.7294 19.1592 -1.04928e-13 1.98785e-16 -10 -5.65147e-14 -1.37161e-14 -10 -3.18055e-15 -4.77083e-15 -3.18055e-15 19.9818 0.871897 2.3964 24 -9.54166e-15 -5.08889e-14 20 1.59028e-15 -2.38542e-14 -3.18055e-15 -4.77083e-15 -3.18055e-15 20 -5.56597e-15 -9.54166e-15 24 -8.34896e-15 -4.77083e-14 20 1.59028e-15 -2.54444e-14 -3.18055e-15 -4.77083e-15 -3.18055e-15 19.9748 -1.02565 -2.81938 24 -8.74653e-15 -3.81667e-14 20 -9.54166e-15 -2.8625e-14 -3.18055e-15 -4.77083e-15 -3.18055e-15 19.7815 -3.00948 -8.30515 24 3.18055e-15 -3.49861e-14 20 -1.74931e-14 -2.22639e-14 13.5533 -13.7043 -30.7727 -36.7227 33.0592 -71.9405 23.3502 -68.2245 24.4092 -22.6708 -19.3529 10.5811 -28.184 10.7294 -19.1592 -3.36491e-15 1.90833e-14 10 -0 0 10 -1.05934e-30 -6.36111e-15 -9.54166e-15 -19.9818 0.871897 -2.3964 -24 7.15625e-15 -0 -20 1.59028e-15 -9.54166e-15 -1.05934e-30 -6.36111e-15 -9.54166e-15 -20 -1.27222e-14 -6.36111e-15 -24 3.97569e-15 -0 -20 -3.18055e-15 -6.36111e-15 -1.05934e-30 -6.36111e-15 -9.54166e-15 -19.9748 -1.02565 2.81938 -24 0 -1.27222e-14 -20 2.38542e-15 -3.18055e-15 -1.05934e-30 -6.36111e-15 -9.54166e-15 -19.7815 -3.00948 8.30515 -24 5.96354e-15 -3.18055e-15 -20 -1.59028e-15 3.18055e-15 
359.917 88.2383 203.679 25.5816 14.0867 -65.5704 -23.2339 -56.9164 -22.3925 -0.640568 27.1749 -17.9867 10.5442 5.98866 27.9221 11.6726 -48.957 -6.32936 2.04827 31.6673 7.2447 -13.5185 -10.2902 -17.405 -7.63985 12.8769 14.524 -1.60408 3.40039 3.42977 -2.68164 5.4894 5.58962 -0.130635 -0.41856 -0.609775 -0.130557 -0.421631 -0.60898 -3.08549 -7.88929 -10.738 2.33697 -11.0331 21.2002 74.8333 -3.50561 51.0715 33.4712 -57.9795 22.3465 25.1295 -17.3758 -17.8432 28.184 10.7294 19.1592 -1.12932e-13 1.20428e-14 -10 -3.21741e-14 2.98177e-15 -10 8.82781e-32 -1.59028e-15 3.18055e-15 19.9818 0.871897 2.3964 24 -3.18055e-15 -4.45278e-14 20 1.59028e-15 1.74931e-14 8.82781e-32 -1.59028e-15 3.18055e-15 20 3.97569e-15 -9.54166e-15 24 -2.78299e-15 -4.45278e-14 20 6.36111e-15 -0 8.82781e-32 -1.59028e-15 3.18055e-15 19.9748 -1.02565 -2.81938 24 -5.56597e-15 -3.49861e-14 20 -6.36111e-15 -0 8.82781e-32 -1.59028e-15 3.18055e-15 19.7815 -3.00948 -8.30515 24 3.18055e-15 -2.8625e-14 20 -1.11319e-14 -0 13.6165 -13.6469 -30.9021 -36.1864 33.1612 -72.2964 23.2492 -67.2928 24.2784 -22.4238 -19.4125 10.673 -28.184 10.7294 -19.1592 -4.91207e-15 9.54166e-15 10 -0 0 10 -3.18055e-15 -9.54166e-15 -6.36111e-15 -19.9818 0.871897 -2.3964 -24 2.38542e-15 9.54166e-15 -20 -7.95139e-15 -1.27222e-14 -3.18055e-15 -9.54166e-15 -6.36111e-15 -20 -6.36111e-15 -6.36111e-15 -24 -7.95139e-16 -0 -20 -2.38542e-15 9.54166e-15 -3.18055e-15 -9.54166e-15 -6.36111e-15 -19.9748 -1.02565 2.81938 -24 9.54166e-15 6.36111e-15 -20 5.56597e-15 2.22639e-14 -3.18055e-15 -9.54166e-15 -6.36111e-15 -19.7815 -3.00948 8.30515 -24 -1.19271e-15 -9.54166e-15 -20 -8.74653e-15 -0 
359.917 88.2383 203.687 25.5723 14.0551 -65.5845 -23.1921 -56.8979 -22.3354 -0.671601 27.1382 -17.9008 10.5489 6.00651 27.8481 11.6841 -48.9187 -6.278 1.99788 31.7036 7.29622 -13.4977 -10.3313 -17.4616 -7.60324 12.8417 14.5573 -1.59528 3.3902 3.44114 -2.66741 5.47301 5.60866 -0.13728 -0.414636 -0.609775 -0.137218 -0.417745 -0.60898 -3.19911 -7.81949 -10.7191 2.33911 -10.7352 21.0706 75.3211 -3.76713 50.8003 35.5286 -57.7821 24.891 25.1033 -17.3444 -17.71 28.184 10.7294 19.1592 -7.47954e-14 1.08213e-14 -10 1.35143e-14 3.37934e-15 -10 4.41391e-32 1.59028e-15 -1.59028e-15 19.9818 0.871897 2.3964 24 8.74653e-15 1.74931e-14 20 -1.59028e-15 2.22639e-14 4.41391e-32 1.59028e-15 -1.59028e-15 20 3.18055e-15 1.27222e-14 24 7.95139e-16 2.22639e-14 20 3.18055e-15 2.22639e-14 4.41391e-32 1.59028e-15 -1.59028e-15 19.9748 -1.02565 -2.81938 24 9.54166e-15 1.59028e-14 20 -9.54166e-15 1.59028e-14 4.41391e-32 1.59028e-15 -1.59028e-15 19.7815 -3.00948 -8.30515 24 1.19271e-14 1.27222e-14 20 -3.18055e-15 2.54444e-14 13.6774 -13.5986 -31.0367 -35.686 33.2842 -72.629 22.9952 -66.02 23.9799 -22.3573 -19.743 10.6369 -28.184 10.7294 -19.1592 -5.60818e-16 3.18055e-15 10 4.91207e-15 -9.54166e-15 10 -6.36111e-15 0 -9.54166e-15 -19.9818 0.871897 -2.3964 -24 4.77083e-15 -1.27222e-14 -20 -3.57812e-15 -2.22639e-14 -6.36111e-15 0 -9.54166e-15 -20 3.18055e-15 -6.36111e-15 -24 -4.77083e-15 -1.59028e-14 -20 2.38542e-15 -1.27222e-14 -6.36111e-15 0 -9.54166e-15 -19.9748 -1.02565 2.81938 -24 6.36111e-15 -1.27222e-14 -20 6.36111e-15 -1.90833e-14 -6.36111e-15 0 -9.54166e-15 -19.7815 -3.00948 8.30515 -24 8.34896e-15 -1.27222e-14 -20 -7.95139e-16 -1.27222e-14 
359.917 88.2383 203.699 25.5588 14.0239 -65.5874 -23.1519 -56.8725 -22.2908 -0.732967 27.0765 -17.6731 10.5816 6.03671 27.6478 11.6777 -48.8833 -6.23745 1.95349 31.749 7.34783 -13.4774 -10.3772 -17.5318 -7.55906 12.8114 14.5762 -1.58475 3.38059 3.44899 -2.65038 5.45743 5.62218 -0.140797 -0.409248 -0.609774 -0.140745 -0.412372 -0.608979 -3.25757 -7.72117 -10.7616 2.32917 -10.4449 20.9712 75.8741 -4.07523 50.488 37.4761 -57.4429 27.3668 25.0856 -17.3647 -17.561 28.184 10.7294 19.1592 9.29144e-14 -1.33807e-14 -10 -3.56476e-14 -4.12478e-15 -10 -0 0 4.77083e-15 19.9818 0.871897 2.3964 24 5.56597e-15 3.18055e-15 20 -6.36111e-15 -6.36111e-15 -0 0 4.77083e-15 20 3.97569e-16 -0 24 -5.1684e-15 -1.27222e-14 20 -6.36111e-15 -7.95139e-15 -0 0 4.77083e-15 19.9748 -1.02565 -2.81938 24 -9.14409e-15 -2.22639e-14 20 -7.95139e-15 -9.54166e-15 -0 0 4.77083e-15 19.7815 -3.00948 -8.30515 24 -3.57812e-15 -9.54166e-15 20 -4.77083e-15 -6.36111e-15 13.7302 -13.5573 -31.1662 -35.2578 33.4036 -72.9146 20.7316 -59.3993 21.5629 -24.2709 -25.0119 8.71713 -28.184 10.7294 -19.1592 5.3376e-15 6.36111e-15 10 3.79044e-15 -3.18055e-15 10 -1.27222e-14 3.18055e-15 -3.18055e-15 -19.9818 0.871897 -2.3964 -24 7.95139e-16 3.18055e-15 -20 -7.55382e-15 -9.54166e-15 -1.27222e-14 3.18055e-15 -3.18055e-15 -20 0 -3.18055e-15 -24 -6.36111e-15 9.54166e-15 -20 1.98785e-15 1.59028e-14 -1.27222e-14 3.18055e-15 -3.18055e-15 -19.9748 -1.02565 2.81938 -24 2.38542e-15 3.18055e-15 -20 7.15625e-15 9.54166e-15 -1.27222e-14 3.18055e-15 -3.18055e-15 -19.7815 -3.00948 8.30515 -24 2.38542e-15 -3.18055e-15 -20 -1.11319e-14 -3.18055e-15 
